<?xml version="1.0" standalone="no"?>
<!DOCTYPE svg PUBLIC "-//W3C//DTD SVG 20010904//EN"
 "http://www.w3.org/TR/2001/REC-SVG-20010904/DTD/svg10.dtd">
<svg version="1.0" xmlns="http://www.w3.org/2000/svg"
 width="2000.000000pt" height="2000.000000pt" viewBox="0 0 2000.000000 2000.000000"
 preserveAspectRatio="xMidYMid meet">

<g transform="translate(0.000000,2000.000000) scale(0.100000,-0.100000)"
fill="#000000" stroke="none">
<path d="M0 10000 l0 -10000 10000 0 10000 0 0 10000 0 10000 -10000 0 -10000
0 0 -10000z m5433 7462 l27 -26 0 -226 c0 -228 -6 -275 -38 -312 -18 -21 -91
-25 -110 -6 -9 9 -12 86 -12 283 0 269 0 272 23 292 41 38 64 37 110 -5z
m3772 -407 c42 -8 158 -37 258 -64 278 -76 325 -84 477 -84 146 -1 118 -7 371
82 196 68 445 94 764 80 212 -9 284 -23 392 -74 104 -51 174 -119 223 -219 59
-120 71 -199 76 -490 2 -138 9 -279 15 -315 27 -170 81 -329 153 -446 124
-201 162 -355 176 -720 5 -126 14 -247 20 -268 24 -79 79 -100 124 -47 39 47
48 91 53 267 5 147 7 164 26 180 11 10 17 12 13 6 -9 -17 3 -16 34 2 42 24
156 19 215 -9 64 -30 128 -98 148 -156 38 -116 45 -178 26 -257 -51 -210 -103
-307 -239 -444 -116 -118 -197 -174 -367 -256 l-112 -54 -57 -117 c-108 -222
-202 -382 -304 -514 -19 -25 -54 -69 -77 -99 -45 -59 -464 -476 -501 -500 -32
-20 -43 -70 -54 -249 -19 -310 -13 -556 16 -578 6 -5 40 -15 76 -22 36 -7 76
-21 90 -30 14 -10 50 -25 80 -35 30 -10 64 -24 76 -32 11 -7 52 -24 90 -37 38
-14 116 -43 174 -64 152 -58 180 -68 225 -82 41 -12 229 -91 275 -114 14 -8
43 -19 65 -26 61 -20 170 -76 223 -117 43 -33 303 -164 390 -197 20 -8 74 -28
119 -45 45 -17 99 -39 120 -49 21 -11 56 -25 78 -32 22 -7 57 -24 78 -37 20
-13 37 -20 37 -16 0 4 5 2 12 -5 7 -7 19 -12 28 -12 16 0 68 -25 143 -68 20
-12 38 -21 40 -20 1 1 22 -10 47 -24 25 -14 56 -29 70 -33 14 -4 37 -18 52
-30 15 -13 67 -44 115 -71 48 -26 90 -50 93 -53 3 -3 17 -12 33 -20 15 -8 27
-18 27 -23 0 -4 5 -8 11 -8 17 0 79 -57 71 -66 -4 -4 -1 -4 5 0 15 8 43 -6 98
-48 80 -63 113 -94 266 -246 156 -155 223 -235 213 -251 -3 -5 0 -8 7 -7 6 2
28 -24 47 -57 20 -33 41 -64 47 -70 24 -20 64 -89 58 -99 -3 -6 -3 -8 2 -4 4
4 29 -29 55 -75 26 -45 75 -131 109 -192 35 -60 64 -114 65 -120 1 -5 10 -23
20 -38 10 -15 16 -30 13 -33 -3 -3 1 -13 9 -23 8 -9 29 -48 47 -86 17 -39 34
-72 37 -75 3 -3 15 -30 27 -60 53 -139 77 -199 99 -248 13 -29 22 -57 19 -62
-3 -4 -1 -10 3 -12 12 -4 93 -228 87 -238 -3 -5 -2 -10 3 -12 14 -6 74 -179
69 -199 -3 -11 -1 -17 5 -13 6 4 9 1 6 -6 -2 -8 4 -22 15 -33 10 -10 16 -25
13 -33 -3 -8 -2 -13 3 -10 13 8 19 -25 27 -134 7 -109 8 -119 19 -142 4 -10 5
-38 3 -63 -2 -25 1 -46 5 -48 5 -1 12 -32 17 -67 5 -36 11 -74 15 -85 3 -11
10 -69 15 -130 5 -60 14 -135 20 -165 19 -106 30 -186 45 -345 8 -88 20 -196
26 -240 6 -44 12 -107 12 -140 1 -33 6 -63 11 -67 12 -8 28 -238 24 -330 -2
-36 0 -64 5 -61 10 6 8 14 18 -132 8 -121 21 -284 34 -450 3 -38 10 -198 16
-355 5 -157 14 -350 20 -430 5 -80 11 -175 12 -212 1 -36 5 -64 8 -62 10 6 18
-32 25 -111 6 -68 10 -87 54 -249 12 -44 19 -88 17 -98 -3 -10 -1 -18 3 -18 5
0 13 -19 18 -42 11 -43 55 -198 92 -318 26 -87 42 -157 43 -200 1 -19 5 -37 9
-40 13 -10 45 -156 47 -215 1 -33 7 -76 12 -95 17 -57 -9 -620 -31 -684 -6
-16 -10 -79 -10 -140 0 -74 -4 -116 -12 -124 -9 -9 -260 -12 -1070 -12 l-1058
0 0 24 c0 68 -21 711 -30 906 -60 1325 -86 1724 -180 2705 -105 1093 -113
1665 -34 2240 40 296 128 673 241 1033 37 119 37 145 1 140 -19 -3 -28 -21
-61 -123 -219 -683 -309 -1312 -293 -2040 8 -397 25 -633 91 -1330 55 -573 88
-995 115 -1450 21 -369 60 -1200 69 -1505 6 -173 13 -379 17 -457 l6 -143
-2093 0 -2093 0 -59 58 -58 57 -92 3 c-104 4 -115 -1 -118 -59 -2 -19 -7 -40
-12 -47 -14 -18 -3260 -18 -3275 1 -8 9 -15 150 -22 398 -6 211 -13 431 -16
489 -2 58 -5 128 -6 155 l-1 50 -13 -40 c-7 -22 -13 -48 -13 -58 -1 -10 -10
-35 -20 -56 -11 -20 -29 -66 -41 -102 -32 -94 -103 -234 -119 -231 -7 1 -10
-2 -6 -8 6 -9 -26 -58 -67 -104 -10 -11 -18 -24 -18 -28 0 -23 -174 -187 -255
-241 -100 -66 -311 -171 -326 -162 -5 4 -9 2 -9 -3 0 -8 -23 -15 -180 -58 -45
-12 -114 -15 -378 -12 -200 2 -325 7 -330 13 -4 6 -21 11 -39 13 -43 4 -185
66 -175 77 4 4 2 5 -5 1 -17 -9 -162 95 -242 175 -39 38 -116 141 -114 151 2
4 -2 7 -8 5 -15 -3 -143 252 -174 348 -14 44 -30 94 -36 110 -11 30 -20 69
-39 175 -5 30 -14 75 -20 100 -24 103 -29 203 -29 555 0 351 5 440 29 580 6
33 15 92 21 130 18 140 27 191 37 230 6 22 15 64 21 92 27 129 35 163 57 243
13 47 30 115 39 152 8 36 29 105 45 152 17 47 30 94 30 105 0 29 25 82 35 74
4 -5 5 -2 1 5 -7 11 85 305 137 437 13 33 36 93 51 133 15 39 31 72 34 72 4 0
7 10 8 23 1 12 18 60 39 107 20 47 39 95 42 107 3 12 13 30 22 40 10 10 21 32
25 48 6 25 87 226 116 290 16 34 89 248 99 290 5 22 18 74 29 115 10 41 25
102 31 135 7 33 16 78 21 100 6 22 12 78 15 125 3 47 10 105 15 130 17 80 22
104 30 155 26 168 97 344 192 473 33 45 64 82 69 82 5 0 9 6 9 13 0 7 31 53
70 103 97 124 163 264 184 389 18 107 27 155 36 195 6 25 15 82 20 128 6 51
21 109 38 150 16 37 35 83 43 102 19 48 164 196 221 226 56 29 72 54 65 103
-13 78 -27 158 -36 196 -5 22 -21 96 -35 165 -14 69 -32 152 -41 185 -26 95
-37 206 -42 405 -5 212 2 275 53 440 38 122 55 165 115 300 47 104 83 194 113
280 13 36 32 83 43 105 11 22 25 67 33 100 7 33 17 76 22 95 29 108 31 176 38
930 4 504 10 803 17 836 22 103 105 217 176 243 70 27 147 5 215 -62 69 -66
103 -151 125 -302 5 -38 11 -364 13 -724 3 -456 8 -658 15 -668 6 -7 25 -13
42 -13 40 0 86 -15 177 -57 130 -61 258 -161 337 -265 15 -20 47 -62 71 -92
24 -31 47 -54 52 -51 4 3 21 38 36 78 22 58 41 86 98 145 87 90 109 102 201
109 66 5 77 3 124 -22 119 -65 161 -139 161 -284 0 -86 -18 -180 -78 -406 -24
-89 -27 -117 -26 -260 0 -159 9 -240 26 -251 5 -3 55 17 111 45 57 28 108 51
115 51 7 0 12 4 12 8 0 5 19 18 42 28 24 10 61 33 83 50 66 50 147 99 185 113
19 6 52 23 72 36 21 14 42 25 48 25 6 0 44 16 85 35 41 20 94 43 117 51 65 22
262 108 268 116 3 4 35 15 70 24 36 9 67 20 70 24 9 12 72 30 83 23 5 -3 7 -2
4 4 -4 6 10 17 31 26 110 46 151 65 192 89 25 15 60 28 77 30 20 1 36 10 43
23 22 41 -3 609 -30 679 -5 15 -10 40 -10 56 0 16 -3 36 -6 44 -4 9 -79 64
-168 123 -88 58 -172 116 -186 129 -14 12 -39 33 -57 46 -148 107 -315 267
-402 386 -52 70 -87 116 -168 217 -77 96 -110 143 -178 254 -35 57 -79 120
-97 139 -43 44 -133 106 -178 121 -31 10 -70 34 -190 115 -46 31 -154 148
-208 225 -24 33 -60 98 -80 144 -35 81 -35 84 -36 227 -1 132 1 149 22 187 36
68 83 114 147 145 101 47 195 33 241 -36 9 -14 20 -23 25 -21 16 10 29 -34 50
-167 26 -162 49 -227 95 -267 73 -64 134 -49 180 46 29 58 29 59 24 208 -2 83
-4 218 -5 300 0 203 13 242 145 444 55 85 100 158 100 163 0 5 19 48 41 96
101 211 122 318 124 637 1 265 10 317 77 452 36 74 124 174 181 207 121 70
412 93 632 51z m-2683 -52 c23 -21 24 -84 1 -110 -10 -11 -53 -47 -97 -79 -43
-32 -97 -73 -120 -91 -131 -102 -165 -123 -202 -123 -117 0 -90 132 41 198 22
11 65 42 96 69 31 26 75 62 98 78 24 17 55 40 69 52 32 27 88 30 114 6z
m-2307 -78 c67 -55 138 -103 280 -190 113 -69 148 -128 109 -183 -12 -18 -25
-22 -67 -22 -47 0 -59 5 -124 55 -40 30 -83 59 -95 66 -90 45 -239 141 -275
176 -33 33 -43 50 -43 74 0 52 23 69 96 69 60 0 66 -2 119 -45z m1346 -163
c31 -5 96 -27 145 -48 83 -37 97 -47 220 -169 134 -133 136 -136 207 -300 36
-83 41 -120 41 -275 0 -154 -10 -213 -53 -322 -47 -117 -64 -140 -227 -307
-157 -162 -210 -229 -220 -280 -9 -42 -31 -57 -91 -64 -40 -5 -53 -3 -57 9
-11 28 -6 78 15 174 11 52 29 158 40 235 21 147 46 261 70 310 13 27 20 31 71
35 75 7 108 36 108 95 0 47 -28 85 -62 85 -32 0 -82 -36 -113 -80 -19 -27 -35
-40 -51 -40 -35 0 -106 35 -141 69 -31 32 -32 32 -17 73 20 56 18 155 -4 198
-14 30 -22 35 -51 35 -74 0 -102 -119 -53 -229 l22 -49 -32 -29 c-39 -33 -81
-57 -120 -69 -25 -7 -31 -4 -59 37 -34 49 -81 84 -116 84 -30 0 -63 -45 -63
-87 0 -25 8 -43 29 -64 25 -24 37 -29 80 -29 41 0 53 -4 65 -22 22 -35 53
-160 71 -288 8 -63 30 -188 47 -277 18 -89 29 -165 26 -168 -3 -4 -28 -1 -55
7 -44 12 -51 19 -79 71 -38 72 -84 119 -152 158 -67 38 -242 210 -270 266 -12
23 -33 58 -47 79 -14 20 -41 87 -62 148 -36 109 -37 114 -37 271 -1 148 1 166
26 237 15 42 38 100 52 130 81 171 260 329 426 377 25 8 56 17 70 22 32 11
328 4 401 -9z m-160 -672 c8 -88 -14 -118 -26 -36 -8 51 2 98 15 75 5 -8 10
-26 11 -39z m-934 -92 c28 -26 31 -78 6 -100 -34 -28 -59 -33 -238 -40 -99 -4
-225 -10 -281 -13 -99 -7 -101 -6 -132 20 -24 20 -32 35 -32 60 0 91 12 94
364 95 284 0 290 0 313 -22z m2453 4 c32 -15 35 -22 38 -63 3 -42 0 -49 -29
-73 -31 -26 -35 -27 -118 -22 -47 3 -174 10 -281 14 -107 4 -204 12 -215 16
-58 25 -73 80 -33 123 l21 23 291 0 c257 0 295 -2 326 -18z m-1845 -152 c33
-34 29 -46 -12 -33 -20 7 -29 17 -31 36 -4 35 8 34 43 -3z m693 3 c-2 -19 -11
-29 -31 -36 -41 -13 -45 -1 -12 33 35 37 47 38 43 3z m-288 -50 c19 -12 53
-26 76 -33 l40 -12 -22 -78 c-13 -43 -32 -138 -44 -211 -12 -74 -32 -187 -46
-253 -13 -65 -24 -138 -24 -161 0 -61 -8 -77 -30 -65 -21 11 -50 3 -50 -13 0
-7 -3 -7 -9 -2 -12 12 -63 264 -91 445 -20 135 -55 291 -71 321 -7 14 0 19 35
29 24 6 68 31 97 55 l54 43 25 -23 c14 -12 41 -31 60 -42z m-724 -464 c12 -14
19 -36 19 -64 0 -40 -5 -49 -79 -127 -43 -46 -88 -94 -100 -108 -12 -14 -64
-71 -115 -127 l-93 -103 -52 0 c-54 0 -75 13 -89 51 -10 29 32 91 137 201 55
59 133 142 171 184 105 114 159 139 201 93z m1340 2 c17 -10 48 -40 70 -67 21
-26 98 -109 170 -183 179 -186 193 -209 158 -259 -13 -18 -25 -22 -73 -22
l-59 0 -58 66 c-33 36 -114 123 -180 193 -67 69 -127 136 -133 148 -6 12 -11
42 -11 67 0 71 52 96 116 57z m-813 -362 c21 -10 48 -19 60 -19 40 0 314 -94
339 -117 20 -18 24 -68 7 -79 -7 -4 -9 -24 -6 -50 3 -31 -1 -54 -14 -79 -11
-19 -19 -54 -19 -77 0 -79 -46 -97 -141 -54 -30 13 -110 45 -179 71 -151 58
-163 69 -155 141 5 33 3 54 -4 58 -15 10 -14 48 3 80 10 20 11 35 3 65 -8 29
-8 47 1 66 13 29 37 28 105 -6z"/>
<path d="M8965 15995 c-117 -32 -170 -57 -222 -110 -59 -58 -69 -97 -33 -130
26 -24 50 -22 150 9 47 15 121 30 167 33 75 5 91 3 179 -27 74 -25 106 -31
142 -27 113 12 107 112 -11 194 -98 66 -252 91 -372 58z"/>
<path d="M10866 15995 c-180 -45 -309 -158 -263 -229 23 -35 55 -36 158 -4 55
17 128 32 175 35 74 5 91 3 173 -26 108 -37 158 -39 195 -10 65 51 7 148 -126
209 -63 30 -85 34 -163 37 -55 1 -113 -3 -149 -12z"/>
<path d="M10182 15353 c-4 -10 -7 -101 -6 -203 l0 -185 72 -211 c78 -228 88
-289 55 -345 -20 -34 -71 -60 -128 -67 -42 -4 -110 22 -177 69 -52 37 -81 12
-35 -32 29 -28 135 -78 181 -86 48 -8 131 21 173 60 74 70 70 146 -21 412 -76
224 -93 330 -76 491 6 53 8 100 4 105 -9 15 -34 10 -42 -8z"/>
<path d="M8982 15214 c-124 -62 -169 -212 -96 -316 16 -23 49 -52 74 -65 38
-21 56 -24 117 -21 86 4 116 22 152 93 38 73 40 151 6 220 -53 109 -148 143
-253 89z"/>
<path d="M10862 15218 c-60 -29 -118 -98 -132 -158 -23 -96 29 -196 122 -234
55 -24 142 -21 189 6 79 44 120 202 75 288 -58 111 -152 147 -254 98z"/>
<path d="M7296 14679 c-31 -24 -35 -59 -7 -59 10 0 24 7 31 15 18 22 65 18
108 -9 47 -30 55 -40 77 -102 16 -47 17 -54 1 -106 -9 -31 -16 -65 -16 -77 0
-41 34 -90 92 -132 32 -23 65 -53 73 -66 17 -26 43 -30 51 -8 8 20 -27 61 -95
111 -71 51 -79 75 -56 163 15 57 14 67 -1 120 -20 72 -59 122 -119 150 -57 27
-105 27 -139 0z"/>
<path d="M12527 14678 c-59 -12 -122 -61 -149 -115 -25 -52 -29 -117 -13 -226
l8 -57 -43 -38 c-131 -116 -147 -136 -113 -149 10 -4 24 2 37 18 12 13 47 43
79 67 87 65 104 119 72 225 -13 44 -13 52 8 108 17 48 31 68 62 90 56 40 97
47 124 20 26 -26 51 -27 51 -1 0 23 -34 56 -63 62 -12 2 -39 0 -60 -4z"/>
<path d="M10477 13914 c-24 -24 -532 -38 -727 -19 -70 6 -78 5 -130 -22 -30
-16 -60 -40 -67 -53 -33 -66 6 -202 80 -278 86 -89 241 -183 349 -213 97 -27
263 -26 346 2 212 71 415 309 388 453 -10 50 -57 101 -113 120 -47 16 -114 21
-126 10z"/>
<path d="M6011 12239 c-86 -22 -214 -89 -219 -114 -7 -32 14 -39 47 -16 51 37
154 79 227 94 58 11 70 17 72 35 4 28 -24 28 -127 1z"/>
<path d="M6860 11722 c0 -11 9 -27 21 -38 96 -86 148 -440 92 -620 -35 -110
-90 -176 -161 -190 l-32 -6 0 48 c-1 57 -21 154 -42 204 -28 66 -153 234 -233
315 -138 139 -256 177 -478 154 -99 -10 -137 -21 -137 -39 0 -19 24 -21 133
-9 214 23 320 -11 452 -146 87 -88 205 -256 231 -326 24 -69 30 -221 10 -299
-37 -146 -112 -246 -224 -298 -75 -34 -136 -35 -179 -3 -26 20 -33 32 -33 60
0 54 -25 162 -50 213 -68 146 -390 387 -390 293 0 -8 29 -28 64 -45 76 -37
214 -161 263 -237 56 -88 77 -225 52 -345 -65 -309 -348 -357 -349 -59 0 58
-5 81 -22 110 -34 55 -130 137 -148 126 -20 -12 -8 -41 30 -70 22 -16 52 -48
67 -69 25 -35 28 -47 28 -121 0 -73 3 -87 30 -131 42 -67 85 -94 150 -94 113
0 216 111 256 275 7 28 13 51 15 53 1 2 14 -4 28 -14 21 -13 42 -16 101 -12
75 5 75 5 62 -16 -51 -77 -79 -131 -106 -198 -39 -96 -47 -133 -31 -143 18
-11 35 13 64 95 45 125 130 257 246 380 59 64 108 158 123 240 11 57 12 58 50
63 146 20 252 241 233 487 -14 175 -61 326 -123 400 -28 34 -63 40 -63 12z"/>
<path d="M14342 9749 c-9 -17 -59 -99 -111 -182 -103 -165 -181 -309 -181
-332 0 -17 32 -36 46 -27 5 4 25 39 43 77 19 39 73 133 121 210 124 199 151
250 144 269 -10 26 -43 19 -62 -15z"/>
<path d="M6870 9338 c0 -12 9 -31 19 -42 34 -37 74 -208 79 -337 5 -143 -9
-220 -84 -449 -103 -317 -109 -348 -109 -570 1 -161 6 -227 29 -380 18 -118
28 -230 29 -310 1 -147 -11 -197 -102 -433 -72 -187 -94 -275 -131 -526 -71
-481 -139 -852 -285 -1576 -58 -286 -131 -646 -161 -800 -30 -154 -71 -361
-91 -460 -52 -259 -51 -247 -17 -243 27 3 30 8 46 74 10 39 42 201 72 360 30
159 91 467 136 684 129 632 157 776 210 1053 57 306 107 601 149 885 17 111
40 241 52 289 21 86 30 112 107 314 68 178 76 217 75 379 0 105 -8 193 -27
320 -37 236 -44 437 -22 563 17 90 30 139 121 427 53 170 67 243 68 365 0 92
-5 131 -33 240 -36 143 -64 195 -106 195 -18 0 -24 -5 -24 -22z"/>
<path d="M5280 8315 c-15 -19 -10 -27 124 -200 239 -309 564 -675 598 -675 9
0 20 9 23 21 6 17 -10 38 -75 107 -45 48 -95 101 -110 117 -70 76 -267 316
-389 473 -74 94 -139 172 -146 172 -7 0 -18 -7 -25 -15z"/>
<path d="M5107 6933 c-13 -12 -7 -42 11 -52 9 -5 67 -22 127 -37 99 -26 127
-28 280 -29 94 0 191 4 218 8 44 8 47 10 47 39 0 29 -1 30 -37 24 -21 -3 -99
-9 -173 -12 -143 -7 -241 5 -381 47 -72 21 -82 22 -92 12z"/>
<path d="M8314 6687 c-14 -39 58 -285 166 -567 128 -334 236 -707 285 -982 17
-99 29 -117 60 -94 16 11 15 20 -5 131 -51 282 -144 598 -300 1015 -55 148
-110 315 -125 379 -14 63 -28 119 -31 123 -8 13 -44 9 -50 -5z"/>
<path d="M8733 4680 c-67 -16 -114 -68 -127 -142 -21 -119 86 -229 209 -215
57 6 77 24 117 104 27 55 30 70 25 115 -7 58 -29 95 -73 119 -36 21 -108 30
-151 19z"/>
<path d="M15443 3112 c-6 -4 -18 -23 -28 -42 -106 -207 -307 -451 -538 -654
-58 -51 -77 -74 -75 -90 7 -52 41 -30 218 141 211 204 292 304 407 497 29 50
53 102 53 117 0 27 -18 43 -37 31z"/>
<path d="M8810 2788 c-74 -38 -112 -148 -80 -232 24 -65 127 -123 201 -113 73
10 128 87 136 190 4 53 2 67 -19 96 -37 55 -71 74 -135 79 -46 3 -67 -1 -103
-20z"/>
</g>
</svg>
